# xmcd
#
# Track frame offsets:
#	150
#	32789
#	51414
#	96063
#	122439
#	158035
#	190065
#	218860
#	240191
#	268217
#
# Disc length: 3834 seconds
#
# Revision: 0
# Processed by: cddbd v1.5.2PL0 Copyright (c) Steve Scherf et al.
# Submitted via: EasyCDDAExtractor 11.5.0.1
#
DISCID=820ef80a
DTITLE=Diverse - 80s Maxi - Best of 12 Inches CD1
DYEAR=2008
DGENRE=
TTITLE0=Gold - 12" Mix
TTITLE1=Right Between The Eyes
TTITLE2=Dancing With Tears In My Eyes - 12" Version
TTITLE3=(Feels Like) Heave
TTITLE4=Come Back And Stay - Extended Version
TTITLE5=Hold Me Now
TTITLE6=She Bop - 12" Version
TTITLE7=(I Just) Died In Your Arms
TTITLE8=Wishing Well - Three Coins In A Fountain Mix
TTITLE9=Out Of Touch
EXTD=
EXTT0=
EXTT1=
EXTT2=
EXTT3=
EXTT4=
EXTT5=
EXTT6=
EXTT7=
EXTT8=
EXTT9=
PLAYORDER=
